<svg width="24" height="24" viewBox="0 0 48 48" xmlns="http://www.w3.org/2000/svg">
  <path fill="#4285F4" d="M44.5 20H24v8.9h11.8C34.7 33.4 30.1 37 24 37c-7.2 0-13-5.8-13-13s5.8-13 13-13c3.1 0 6 1.1 8.3 3.1l6.4-6.4C34.5 3.3 29.5 1 24 1 11.3 1 1 11.3 1 24s10.3 23 23 23 23-10.3 23-23c0-1.3-.1-2.2-.5-4z"/>
  <path fill="#34A853" d="M6.3 14.7l7.3 5.3c2-4 5.9-6.8 10.4-6.8 3.1 0 6 1.1 8.3 3.1l6.4-6.4C34.5 3.3 29.5 1 24 1 15.1 1 7.6 6.3 6.3 14.7z" opacity=".9"/>
  <path fill="#FBBC05" d="M24 47c6 0 11-2 15-5.5l-7-5.7c-2.2 1.5-5 2.2-7.9 2.2-6.1 0-11.2-4.1-13-9.7l-7.4 5.8C6.2 41.7 14.3 47 24 47z"/>
  <path fill="#EA4335" d="M44.5 20H24v8.9h11.8c-.9 2.6-2.8 4.8-5.3 6.3l7 5.7C41 37.3 47 33 47 24c0-1.3-.1-2.2-.5-4z" opacity=".9"/>
</svg>
