<?xml version="1.0" encoding="UTF-8"?>
<svg version="1.1" xmlns="http://www.w3.org/2000/svg" width="667" height="667">
<path d="M0 0 C220.11 0 440.22 0 667 0 C667 220.11 667 440.22 667 667 C446.89 667 226.78 667 0 667 C0 446.89 0 226.78 0 0 Z " fill="#FEFEFE" transform="translate(0,0)"/>
<path d="M0 0 C1.12857422 0.23058105 2.25714844 0.46116211 3.41992188 0.69873047 C9.27206921 1.92430697 15.10928414 3.21237089 20.92578125 4.59765625 C21.85817627 4.81945557 22.79057129 5.04125488 23.7512207 5.26977539 C26 6 26 6 28 8 C-0.215 12.95 -0.215 12.95 -29 18 C-10.18517002 20.89559657 -10.18517002 20.89559657 8.63378906 23.76416016 C17.8781052 25.16799874 27.11662881 26.60563439 36.35173416 28.06882668 C41.87466669 28.94272181 47.3991133 29.8018671 52.92919922 30.62939453 C58.36589983 31.44352516 63.79556302 32.29508189 69.22246552 33.17206955 C71.26306413 33.49533749 73.30576269 33.80566566 75.3504715 34.10182571 C88.71873885 36.04884981 97.75043602 39.11662926 108 48 C109.91453627 49.52351436 111.83086425 51.04478359 113.75 52.5625 C115.05130859 53.66271484 115.05130859 53.66271484 116.37890625 54.78515625 C118.18657857 56.31265283 120.03072009 57.7976636 121.90234375 59.24609375 C122.82144531 59.98988281 123.74054688 60.73367187 124.6875 61.5 C125.51636719 62.1496875 126.34523438 62.799375 127.19921875 63.46875 C131.77087306 69.89484977 128.4222 80.40707719 127.3125 87.6875 C127.13098389 88.87939941 126.94946777 90.07129883 126.76245117 91.29931641 C114.30487661 170.55170797 74.72614519 247.79778733 22.4453125 308.15234375 C20.04341915 310.9494368 17.73754443 313.8064339 15.4375 316.6875 C11.67262661 321.32119033 7.59980753 325.50243458 3.33203125 329.671875 C1.3043561 331.6961537 -0.58117387 333.75775667 -2.4375 335.9375 C-8.65126678 343.1771245 -15.52905802 349.87869058 -22.78515625 356.06640625 C-25.11302249 358.09867043 -27.37098692 360.19327504 -29.62866211 362.30273438 C-34.94507501 367.26687808 -40.33821457 372.05205432 -46.015625 376.60546875 C-48.23027542 378.38240685 -50.42492381 380.17495802 -52.609375 381.98828125 C-83.23748296 407.33382084 -117.26110382 428.56895568 -152.04296875 447.6875 C-155.76520512 449.73541304 -159.42756083 451.8444691 -163.05078125 454.0625 C-173.12294775 460.11268244 -173.12294775 460.11268244 -177.47265625 459.8515625 C-180.06151649 458.56439087 -181.84969168 456.94187778 -184 455 C-185.20282146 454.10311431 -186.41609065 453.22015292 -187.63671875 452.34765625 C-191.83777468 449.33166976 -195.92850447 446.18802895 -200 443 C-200.54640137 442.57509277 -201.09280273 442.15018555 -201.65576172 441.71240234 C-217.85946086 428.97833517 -233.0510516 413.80667591 -245 397 C-245.43393066 396.40509766 -245.86786133 395.81019531 -246.31494141 395.19726562 C-268.2953699 365.00670937 -285.06068187 329.13559329 -290.54003906 291.97729492 C-290.9088015 289.59032152 -291.31753926 287.22088431 -291.74902344 284.8449707 C-293.78387164 273.34531975 -294.48945197 262.22880015 -294.375 250.5625 C-294.37001495 249.69903961 -294.36502991 248.83557922 -294.3598938 247.94595337 C-294.19056463 222.73906277 -291.23350029 199.23162618 -284 175 C-283.74847168 174.14728516 -283.49694336 173.29457031 -283.23779297 172.41601562 C-278.48494019 156.56663989 -272.31785797 140.69502163 -263.59375 126.59765625 C-262.03333916 124.05433957 -260.67328586 121.46682358 -259.3125 118.8125 C-252.71051805 106.61472051 -243.90096384 95.5770137 -235 85 C-234.28457031 84.10023438 -233.56914062 83.20046875 -232.83203125 82.2734375 C-224.31595888 71.57182444 -214.77851792 62.39519346 -204 54 C-203.35724121 53.49678223 -202.71448242 52.99356445 -202.05224609 52.47509766 C-189.88429267 42.96844261 -177.70333724 34.19511066 -164 27 C-162.62690784 26.25779719 -161.25456554 25.51420612 -159.8828125 24.76953125 C-152.39403095 20.72216937 -145.01442535 16.90893957 -137 14 C-135.78957031 13.52949219 -134.57914063 13.05898437 -133.33203125 12.57421875 C-92.09786769 -3.41065496 -43.61518492 -8.91711997 0 0 Z " fill="#473287" transform="translate(336,149)"/>
<path d="M0 0 C0.66 0.33 1.32 0.66 2 1 C2.46728516 2.83032227 2.46728516 2.83032227 2.7890625 5.31640625 C2.9221582 6.28553955 3.05525391 7.25467285 3.19238281 8.25317383 C3.33514648 9.34525146 3.47791016 10.4373291 3.625 11.5625 C4.95174753 21.15710036 6.42622401 30.71490612 8.0390625 40.265625 C8.30990158 41.87068153 8.30990158 41.87068153 8.58621216 43.50816345 C9.32278818 47.8625629 10.06190483 52.21649696 10.80889893 56.56912231 C11.34019523 59.66650006 11.86572572 62.76481407 12.390625 65.86328125 C12.5529361 66.79670349 12.71524719 67.73012573 12.88247681 68.6918335 C13.63979079 73.18397061 14.1945061 77.42391346 14 82 C14.66 82 15.32 82 16 82 C16.04313828 81.31738098 16.08627655 80.63476196 16.13072205 79.93145752 C16.75811593 71.25637049 18.06586763 62.74080097 19.50390625 54.171875 C19.74951617 52.68693812 19.99470197 51.20193104 20.23948669 49.71685791 C20.87806612 45.84965491 21.52231806 41.98341883 22.16784668 38.11737061 C22.82828678 34.15564924 23.48323251 30.19301994 24.13867188 26.23046875 C25.42047314 18.48609153 26.70828188 10.7427293 28 3 C30.29203173 5.21176916 31.68967351 7.05631587 33.015625 9.96484375 C33.37624023 10.75431396 33.73685547 11.54378418 34.10839844 12.35717773 C34.48512695 13.20868408 34.86185547 14.06019043 35.25 14.9375 C35.64477539 15.82703369 36.03955078 16.71656738 36.44628906 17.63305664 C59.55430582 70.59592233 64.87045836 133.61589305 47 189 C46.69078613 189.97807617 46.38157227 190.95615234 46.06298828 191.96386719 C34.84441757 227.06387037 17.49717929 259.17053566 -8 286 C-9.21572509 287.3894001 -10.42462611 288.78481591 -11.625 290.1875 C-17.61825148 297.04489472 -24.06190502 303.03470128 -31.171875 308.7265625 C-32.97384945 310.17511102 -34.75751872 311.64694922 -36.515625 313.1484375 C-84.76569841 354.14619926 -151.38686225 372.54292874 -214 368 C-249.10101521 364.7357425 -281.80699391 354.25861874 -313 338 C-314.99818017 336.9963686 -316.99756397 335.99511303 -319 335 C-319 334.34 -319 333.68 -319 333 C-317.67500488 332.38294189 -317.67500488 332.38294189 -316.32324219 331.75341797 C-273.2650563 311.68105689 -230.76965496 290.72741789 -192 263 C-191.2790918 262.48872559 -190.55818359 261.97745117 -189.81542969 261.45068359 C-179.65384479 254.23972507 -169.70497917 246.81447879 -160 239 C-158.62328125 237.89785156 -158.62328125 237.89785156 -157.21875 236.7734375 C-136.97427013 220.39922584 -116.6156489 202.84601021 -99.69921875 182.98046875 C-97.71969568 180.67330048 -95.6735788 178.43353218 -93.625 176.1875 C-75.65076468 156.21612742 -59.64540419 134.13529652 -46 111 C-45.39285156 109.97777344 -44.78570312 108.95554687 -44.16015625 107.90234375 C-24.34608476 73.90642151 -9.16595091 38.30402642 0 0 Z " fill="#3C0C59" transform="translate(485,278)"/>
<path d="M0 0 C0.66 0 1.32 0 2 0 C8.6 39.6 15.2 79.2 22 120 C38.39761706 123.15477777 38.39761706 123.15477777 54.83911133 126.01464844 C55.84679565 126.18104324 56.85447998 126.34743805 57.8927002 126.51887512 C61.12207562 127.05151596 64.35203618 127.58050612 67.58203125 128.109375 C69.86134052 128.4845725 72.14061125 128.86000425 74.41984558 129.23565674 C80.3424648 130.21116325 86.26559286 131.18354381 92.18884277 132.1552124 C98.26358337 133.15232116 104.33782325 134.15247084 110.41210938 135.15234375 C122.27425902 137.10449279 134.13694994 139.05333075 146 141 C146 141.33 146 141.66 146 142 C130.57151925 144.61265634 115.14225426 147.22062688 99.7120409 149.82302856 C92.54747706 151.03148914 85.38317781 152.24147907 78.21948242 153.45507812 C71.97529188 154.5129002 65.73062306 155.56784402 59.48536414 156.6193409 C56.17887042 157.1761492 52.87263333 157.7343914 49.5669651 158.29608154 C45.87575687 158.92253765 42.18372563 159.54390294 38.49145508 160.1640625 C37.39669357 160.35107727 36.30193207 160.53809204 35.17399597 160.73077393 C33.66175949 160.98319855 33.66175949 160.98319855 32.11897278 161.24072266 C31.24603482 161.38820953 30.37309687 161.53569641 29.47370625 161.68765259 C26.95517083 162.00566044 24.53568906 162.05519594 22 162 C21.82997971 163.23328537 21.65995941 164.46657074 21.48478699 165.73722839 C19.54425575 179.65235755 17.3146768 193.50807313 14.98828125 207.36328125 C14.61120977 209.62009654 14.2343575 211.87694846 13.85771179 214.13383484 C12.87846343 219.99801497 11.89629167 225.86170159 10.91345215 231.72528076 C9.90598546 237.73907722 8.90136454 243.75334903 7.89648438 249.76757812 C5.93373116 261.5121784 3.96788069 273.25625786 2 285 C1.34 285 0.68 285 0 285 C-2.610632 269.40624836 -5.2184881 253.81203522 -7.82302856 238.21726513 C-9.0323904 230.97657162 -10.24266461 223.73603281 -11.45507812 216.49584961 C-12.51165284 210.1862765 -13.56652452 203.87642146 -14.6193409 197.5662201 C-15.17700194 194.22416922 -15.73552237 190.88226703 -16.29608154 187.54070091 C-16.92099231 183.81290606 -17.54289173 180.08462077 -18.1640625 176.35620117 C-18.35107727 175.24489838 -18.53809204 174.13359558 -18.73077393 172.98861694 C-18.89905701 171.97479446 -19.06734009 170.96097198 -19.24072266 169.91642761 C-19.46195297 168.59319378 -19.46195297 168.59319378 -19.68765259 167.24322796 C-20 165 -20 165 -20 162 C-20.73616295 161.94793113 -21.4723259 161.89586226 -22.23079681 161.84221554 C-29.29722443 161.30370662 -36.2264572 160.44118987 -43.21289062 159.26586914 C-44.26160339 159.09337143 -45.31031616 158.92087372 -46.39080811 158.7431488 C-49.8134588 158.17874587 -53.23488343 157.60728796 -56.65625 157.03515625 C-59.05086408 156.63757585 -61.44551806 156.24023578 -63.84020996 155.84312439 C-68.83673026 155.0133373 -73.83262521 154.1799021 -78.828125 153.34399414 C-85.23375331 152.27254177 -91.64104879 151.21144713 -98.04886627 150.15317631 C-102.98404749 149.33675179 -107.9182118 148.51431185 -112.85209656 147.69009209 C-115.21529508 147.29617452 -117.57883061 146.90427329 -119.94270325 146.51442146 C-123.23696264 145.97032436 -126.5297411 145.41801047 -129.82226562 144.86352539 C-130.79891174 144.70397369 -131.77555786 144.544422 -132.78179932 144.3800354 C-133.67868469 144.22727646 -134.57557007 144.07451752 -135.49963379 143.91712952 C-136.27678993 143.78753373 -137.05394608 143.65793795 -137.8546524 143.52441502 C-140.12154144 142.97029006 -141.95935476 142.11924355 -144 141 C-143.3852393 140.89784715 -142.77047859 140.79569429 -142.13708878 140.6904459 C-127.18077484 138.20508736 -112.22476043 135.71793485 -97.2690773 133.22878361 C-90.03662756 132.0250943 -82.80407764 130.82201309 -75.57128906 129.62036133 C-69.26742626 128.57303923 -62.96375413 127.52457829 -56.6603086 126.4747476 C-53.32248762 125.91887876 -49.98457375 125.36358187 -46.64643097 124.80964851 C-42.92061085 124.19108964 -39.19513119 123.57051852 -35.46972656 122.94946289 C-34.36201904 122.7660434 -33.25431152 122.5826239 -32.11303711 122.39364624 C-31.09783997 122.22398849 -30.08264282 122.05433075 -29.03668213 121.87953186 C-28.15544804 121.73296678 -27.27421394 121.58640169 -26.36627579 121.43539524 C-24.22682826 121.04173645 -22.11041183 120.52760296 -20 120 C-13.4 80.4 -6.8 40.8 0 0 Z " fill="#040530" transform="translate(499,25)"/>
</svg>
