<?xml version="1.0" encoding="UTF-8"?>
<svg id="Layer_1" xmlns="http://www.w3.org/2000/svg" version="1.1" xmlns:xlink="http://www.w3.org/1999/xlink" viewBox="0 0 667 667">
  <!-- Generator: Adobe Illustrator 29.3.0, SVG Export Plug-In . SVG Version: 2.1.0 Build 146)  -->
  <defs>
    <style>
      .st0 {
        stroke-width: .2px;
      }

      .st0, .st1, .st2 {
        fill: none;
      }

      .st0, .st2 {
        stroke: #000;
        stroke-miterlimit: 10;
      }

      .st3 {
        clip-path: url(#clippath-1);
      }

      .st2 {
        stroke-width: .2px;
      }

      .st4 {
        fill: #040530;
      }

      .st5 {
        fill: #fefefe;
      }

      .st6 {
        fill: url(#linear-gradient);
      }

      .st7 {
        clip-path: url(#clippath);
      }
    </style>
    <clipPath id="clippath">
      <path class="st1" d="M475.6,316.7l-7.1,42.6c-3-18-9.3-56-12.3-73.8-13.5,59.3-67,198.1-276.8,288.4,181.1,110.4,401.9-99,300.9-285.7l-4.7,28.4Z"/>
    </clipPath>
    <linearGradient id="linear-gradient" x1="37.1" y1="201" x2="522.4" y2="561.1" gradientUnits="userSpaceOnUse">
      <stop offset=".2" stop-color="#46a0f5"/>
      <stop offset=".2" stop-color="#468be0"/>
      <stop offset=".3" stop-color="#4664b9"/>
      <stop offset=".3" stop-color="#474499"/>
      <stop offset=".4" stop-color="#472c81"/>
      <stop offset=".5" stop-color="#471a6f"/>
      <stop offset=".6" stop-color="#471065"/>
      <stop offset=".7" stop-color="#480d62"/>
      <stop offset=".7" stop-color="#3c0b59"/>
      <stop offset=".9" stop-color="#1e0843"/>
      <stop offset="1" stop-color="#040530"/>
    </linearGradient>
    <clipPath id="clippath-1">
      <path class="st1" d="M341.3,196.6l-42.6-7.1c7.4-1.2,46.1-7.7,52.5-8.7C110.6,108.9-36.2,440.7,174.8,571.1c255-125.7,263.6-339.2,263.6-339.2-9.3-8.9-19.4-17-30.1-24.2l-67-11.2Z"/>
    </clipPath>
  </defs>
  <circle class="st5" cx="333.5" cy="333.5" r="333.5"/>
  <line class="st0" x1="-207.4" y1="571.7" x2="-207.4" y2="571.8"/>
  <g>
    <line class="st2" x1="174.8" y1="571.1" x2="174.7" y2="571.2"/>
    <path class="st4" d="M486.5,171.5l-18-108-18,108-108,18,108,18,18,108,18-108,108-18-108-18Z"/>
    <g class="st7">
      <rect class="st6" x="72.5" y="171.5" width="432" height="432"/>
    </g>
    <g class="st3">
      <rect class="st6" x="72.5" y="171.5" width="432" height="432"/>
    </g>
  </g>
</svg>